<?xml version="1.0" encoding="utf-8"?><!-- Uploaded to: SVG Repo, www.svgrepo.com, Generator: SVG Repo Mixer Tools -->
<svg xmlns="http://www.w3.org/2000/svg" fill="none">
<path d="M 0.8 14.3 V 23.3" stroke="#36186c" stroke-width="1.5" stroke-linecap="round" stroke-linejoin="round"/>
<path d="M 0.8 15.8 H 6 C 6.8 15.8 7.6 16.1 8.1 16.6 C 8.7 17.2 9 18 9 18.8 H 12.8 C 13.5 18.8 14.3 19.1 14.9 19.6 C 15.4 20.2 15.8 21 15.8 21.8 H 0.8" stroke="#36186c" stroke-width="1.5" stroke-linecap="round" stroke-linejoin="round"/>
<path d="M 6 18.8 H 9" stroke="#36186c" stroke-width="1.5" stroke-linecap="round" stroke-linejoin="round"/>
<path d="M 2.3 11.3 H 23.3" stroke="#36186c" stroke-width="1.5" stroke-linecap="round" stroke-linejoin="round"/>
<path d="M 12.8 0.8 V 2.3" stroke="#36186c" stroke-width="1.5" stroke-linecap="round" stroke-linejoin="round"/>
<path d="M 21.8 11.3 C 21.8 8.9 20.8 6.6 19.1 4.9 C 17.4 3.2 15.1 2.3 12.8 2.3 C 10.4 2.3 8.1 3.2 6.4 4.9 C 4.7 6.6 3.8 8.9 3.8 11.3" stroke="#36186c" stroke-width="1.5" stroke-linecap="round" stroke-linejoin="round"/>
<path d="M 11.3 14.3 H 18.4 C 19 14.3 19.5 14.1 20 13.8 C 20.4 13.5 20.8 13.1 21.1 12.6 L 21.7 11.3" stroke="#36186c" stroke-width="1.5" stroke-linecap="round" stroke-linejoin="round"/>
</svg>