<svg id="Layer_1" data-name="Layer 1" xmlns="http://www.w3.org/2000/svg" xmlns:xlink="http://www.w3.org/1999/xlink"
    viewBox="0 0 1200 1200">
    <defs>
        <style>
            .cls-1 {
                fill: #05401D;
            }

            .cls-2 {
                fill: url(#linear-gradient);
            }

            .cls-3 {
                fill: none;
                stroke-miterlimit: 10;
                stroke-width: 4px;
                stroke: url(#linear-gradient-2);
            }

            .cls-4 {
                fill: #faa323;
            }
        </style>
        <linearGradient id="linear-gradient" x1="57.02" y1="600.31" x2="1142.98" y2="600.31"
            gradientUnits="userSpaceOnUse">
            <stop offset="0" stop-color="#c9992c" />
            <stop offset="0.05" stop-color="#d4a83c" />
            <stop offset="0.14" stop-color="#e1ba51" />
            <stop offset="0.25" stop-color="#ebc860" />
            <stop offset="0.37" stop-color="#f0d068" />
            <stop offset="0.56" stop-color="#f2d26b" />
            <stop offset="1" stop-color="#c9992c" />
        </linearGradient>
        <linearGradient id="linear-gradient-2" x1="46.47" y1="599.92" x2="1153.53" y2="599.92"
            xlink:href="#linear-gradient" />
    </defs>
    <rect class="cls-1" width="1200" height="1200" />
    <path class="cls-2"
        d="M57,1004.83V717.27c0-35.11,28.67-63.57,64-63.57h11.65a61.11,61.11,0,0,1,.93-24.39c11.85-47.4,84.58-78.73,179.57-84a344.48,344.48,0,0,1,17.47-88.14c57.33-168.46,231-244.13,276.66-261.39,46.08,19.07,152.72,75,227.24,191.89a471.38,471.38,0,0,1,63.83,157.64c14.26-.14,138.92.14,173.23,72.25a87.84,87.84,0,0,1,7.28,23.3h0c35.38,0,64,28.47,64,63.58v300.38Z" />
    <path class="cls-3"
        d="M48.47,1013.65V714.46c0-36.54,29.12-66.15,65.06-66.15h11.83a65.32,65.32,0,0,1,.94-25.38c12-49.32,85.92-81.91,182.41-87.39a365.42,365.42,0,0,1,17.74-91.71c58.23-175.28,235.19-239.52,281.62-257.48,46.81,19.85,154.52,63.57,230.22,185.17a497.57,497.57,0,0,1,64.83,164c14.48-.14,141.11.15,176,75.18a92.94,92.94,0,0,1,7.39,24.24h0c35.94,0,65.06,29.62,65.06,66.16v312.53Z" />
    <polygon class="cls-1"
        points="600.56 340.98 607.37 354.79 622.62 357 611.59 367.75 614.19 382.93 600.56 375.77 586.92 382.93 589.53 367.75 578.5 357 593.74 354.79 600.56 340.98" />
    <polygon class="cls-1"
        points="566.07 361.97 569.68 369.29 577.75 370.46 571.91 376.15 573.29 384.19 566.07 380.39 558.85 384.19 560.23 376.15 554.39 370.46 562.46 369.29 566.07 361.97" />
    <polygon class="cls-1"
        points="633.93 361.97 637.54 369.29 645.61 370.46 639.77 376.15 641.15 384.19 633.93 380.39 626.71 384.19 628.09 376.15 622.25 370.46 630.32 369.29 633.93 361.97" />
    <path class="cls-1"
        d="M627.36,467.35v1q0,18.12-7.89,31.57A56.73,56.73,0,0,1,598.08,521c-1.28.72-2.59,1.43-3.92,2.06a56.92,56.92,0,0,1-22.53,5.53c-.68,0-1.35,0-2,0a53.08,53.08,0,0,1-23.84-5.47,50.9,50.9,0,0,1-17.9-14.25c-4.53-5.87-6.82-9.68-6.82-11.41,0-1.42.68-2.15,2-2.15,1,0,1.9.89,2.79,2.69a50.35,50.35,0,0,0,14.88,17.22,35.07,35.07,0,0,0,21.64,7.46,35.43,35.43,0,0,0,10.77-1.66q11-3.43,20.59-14.28c.19-.21.35-.42.51-.63q13.32-15.52,13.53-40v-.77c0-1.38,0-2.73-.09-4.06a76.31,76.31,0,0,0-5-24,52,52,0,0,0-7-12.78,37.3,37.3,0,0,0-7.2-7.32,32.71,32.71,0,0,0-15.12-6.63,29,29,0,0,0-5-.4q-12.45,0-23.14,9.07a61.09,61.09,0,0,0-16.5,23.41c-1.07,2.57-2.1,3.86-3.06,3.86-.72,0-1.14-.19-1.28-.59a11.87,11.87,0,0,1-.24-3.27l2-31.31c.14-2.15.79-3.23,2-3.23s2,.73,2.6,2.15c.49,1,2.36,3,5.65,5.92a77.12,77.12,0,0,1,16.9-7.48,55.68,55.68,0,0,1,16.14-2.48c1,0,2.08,0,3.11.1A57,57,0,0,1,595.93,413c.73.38,1.45.75,2.18,1.17a54.82,54.82,0,0,1,21.59,22.15,64,64,0,0,1,7,21.78A73.22,73.22,0,0,1,627.36,467.35Z" />
    <path class="cls-1"
        d="M679,502.07q0,15.6-13.3,28.79t-39,13.3c-3.25,0-8.41-.21-15.49-.59-4.54-.23-7-.35-7.39-.35q-35.58,0-48,.7c-2.78,0-4.16-.74-4.16-2.19a1.62,1.62,0,0,1,1.21-1.61,82.2,82.2,0,0,1,9-1.85,11.87,11.87,0,0,0,7.27-3.93,9.55,9.55,0,0,0,.77-1.05,60.76,60.76,0,0,0,24.56-5.21,24,24,0,0,0,.73,5.8c.65,1.44,2.87,2.68,6.68,3.69s9.84,1.49,18.09,1.49c7.31,0,13.27-1,17.85-3.06s8.79-6,12.64-12.06,5.77-13.2,5.77-21.61q0-18.69-11-27.48a37.1,37.1,0,0,0-13-6.41c-1.5-.42-3-.79-4.68-1.09a73.22,73.22,0,0,0-.67-9.26,47.23,47.23,0,0,0,4.48-1.66,43.13,43.13,0,0,0,6-3q13.29-8,13.3-27,0-16.05-9.89-23.95T616,394.58A65.45,65.45,0,0,0,596.49,398c-.14,3.41-.25,6.68-.37,9.83a61,61,0,0,0-25.28-6.26,6.76,6.76,0,0,0-1-1.66q-2.67-3.18-10.87-4.44c-2.22-.32-3.34-1.12-3.34-2.43s1.12-2.08,3.34-2.08l21,.35q10.28,0,19.28-.46,20.24-1.06,26.1-1.06,21.39,0,34,9.35t12.48,25.52a31.49,31.49,0,0,1-8.2,21.8q-8.21,9.12-27.49,15,21.49,5.69,32.16,15.85A32.83,32.83,0,0,1,679,502.07Z" />
    <path class="cls-1"
        d="M607.73,465.38v.77c-1.51.05-3.08.12-4.69.24-2.11.12-4.28.28-6.55.49-1.09,1.92-1.63,5.28-1.63,10.05l-.47,21.19a44.61,44.61,0,0,1-4.21,5.56c-5.25,5.94-10.7,10-16.52,12.25.52-5.94.75-13.53.75-22.83q0-18.72.47-30.19c.3-7.67.47-13.53.47-17.62A266.29,266.29,0,0,0,574,415.45,28.36,28.36,0,0,1,585.58,421a37,37,0,0,1,9.91,12c0,2.12,0,4.18,0,6.1l.12,17.08c0,2.31.33,3.79,1,4.39s2.45.94,5.38.94H603c1.59,0,3.15-.07,4.67-.14C607.71,462.65,607.73,464,607.73,465.38Z" />
    <path class="cls-1"
        d="M726.58,348.76c-31.45-29.12-68.45-43.65-111.33-40.91-38.25,2.45-71,18-97,46.23-47.58,51.68-52.68,128.74-9.36,186,25.86,34.2,60.78,53.8,103.75,57.24,42.72,3.41,80.1-10.05,112-38.8-31,40.53-93.08,68.93-159.49,54.26A164,164,0,0,1,547.6,297.67C617.38,273.59,689.36,300.68,726.58,348.76Z" />
    <path class="cls-1"
        d="M519.88,367c31.44-42.3,94.17-64.89,153.55-43.08,54.25,19.93,93.24,73.29,89.52,138.22-3.46,60.4-47.78,111.5-109.25,125-54.1,11.88-107.79-13.26-132-47,34.64,30.42,74.26,40.8,118.71,28.43,26.6-7.4,48-23.07,64.16-45.69,35.25-49.45,27.92-117.37-16.61-159.19C652,330,576.89,312.49,519.88,367Z" />
    <path class="cls-1"
        d="M220.39,812.42a23.46,23.46,0,0,1-23.29,23.82H140.29a23.69,23.69,0,0,1-23.56-23.82V716.35c0-28.27,27.23-44,52.88-44,20.42,0,40,7.59,47.64,24.08l-30.36,10.21c0-12-9.43-17-19.9-17-9.42,0-19.89,8.11-19.89,19.89V802a11.72,11.72,0,0,0,11.78,11.77h19.37c6.8,0,12-5.49,12-12.56Z" />
    <path class="cls-1"
        d="M365.67,813.72c0,11.26-9.42,22.52-20.42,22.52h-10.2c-16.76,0-30.37-10.47-30.37-23.82V773.94a11.51,11.51,0,0,0-11.52-11.78H280.6v50.26c0,13.35-13.61,23.82-30.37,23.82H238.45l11.78-22.52V676l30.37-7.86v78c3.66-3.93,8.64-6.55,13.87-6.55h10.21c16.75,0,30.37,10.48,30.37,23.83v38.21c0,6.55,5,12,11.51,12Z" />
    <path class="cls-1"
        d="M455.72,761.37c0,24.87-22,44.76-45,44.76L400,791.74V802a11.73,11.73,0,0,0,11.78,11.77h70.42c0,11.26-9.43,22.52-20.42,22.52H393.68a23.68,23.68,0,0,1-23.56-23.82V781.27c0-24.87,22.25-44.77,45.29-44.77C437.13,736.5,450.48,747.5,455.72,761.37ZM413.31,875.76,392.37,897l-22.25-19.38,21.2-21.2ZM425.88,752c-19.11.52-25.66,17.8-25.92,38.74C419.07,790.17,425.62,772.89,425.88,752ZM461,875.76,440,897l-22.25-19.38L439,856.39Z" />
    <path class="cls-1"
        d="M532.68,695.93c-11.78,5.24-16,20.16-16,37.17v9.16h47.9c0,11.26-9.68,22.51-20.42,22.51H517V865.29c0,22-22.77,35.86-45.55,39.53l-11.25-15.45c18.84-9.16,26.44-17.8,26.44-39.26V722.89c0-24.87,22.25-44.24,45.28-44.24,21.73,0,35.34,10.74,40.57,24.61L542.1,713.47C542.1,705.88,540,699.07,532.68,695.93Z" />
    <path class="cls-1"
        d="M744,794.62v17.8a23.47,23.47,0,0,1-23.3,23.82H668.89a23.46,23.46,0,0,1-23.29-23.82V713.21l30.1-7.86v39.27h20.42a12.18,12.18,0,0,0,12-12V713.73c0-14.66-19.63-22.51-38-22.51s-35.34,6-35.34,18.06l-30.1-10.21c7.33-18.58,33.25-27.75,61-27.75,35.08,0,72.51,16.5,72.51,47.38v11c0,13.87-13.61,20.42-26.18,25.13C729.88,762.16,744,775.51,744,794.62Zm-68.32,6.54c0,7.07,5.23,12.56,12,12.56h14.14a12.18,12.18,0,0,0,12-12V791.21c0-13.87-8.9-20.15-29.58-25.91l-8.64-14.92Z" />
    <path class="cls-1"
        d="M894.54,813.72c0,11.26-9.43,22.52-20.42,22.52H863.91c-16.75,0-30.37-10.47-30.37-23.82V773.94A11.5,11.5,0,0,0,822,762.16H809.46v50.26c0,13.35-13.61,23.82-30.36,23.82H767.32l11.78-22.52V676l30.36-7.86v78c3.67-3.93,8.64-6.55,13.88-6.55h10.2c16.76,0,30.37,10.48,30.37,23.83v38.21c0,6.55,5,12,11.52,12Z" />
    <path class="cls-1"
        d="M942.18,702l-20.95,21.2L899,703.78l21.21-21.2Zm-13.35,99.73a12.17,12.17,0,0,0,12,12h16V739.38l30.36,7.86v54.44c0,6.55,5,12,11.52,12h19.11c0,11.26-9.43,22.52-20.42,22.52H987.2c-11.52,0-21.47-5-26.7-12.57-3.4,7.07-10.47,12.57-18.06,12.57h-19.9A23.69,23.69,0,0,1,899,812.42V781c0-24.86,22.52-40,45.29-44.5l11.26,15.19c-18.85,9.16-26.7,18.06-26.7,39.52Zm61-99.73-20.94,21.2-22.25-19.37,21.2-21.2Z" />
    <path class="cls-1"
        d="M1058.66,702l-20.94,21.2-22.25-19.37,21.2-21.2Zm-36.38,110.47v-73l30.36,7.86v57.32a12,12,0,0,0,11.52,9.16h19.11c0,11.26-9.43,22.52-20.42,22.52h-10.21C1035.89,836.24,1022.28,825.77,1022.28,812.42Z" />
    <path class="cls-4"
        d="M415.12,949.44q6.64,1.75,9.95,4.9a10.2,10.2,0,0,1,3.31,7.66,12.33,12.33,0,0,1-4.11,8.9Q420.16,975,412.18,975c-1,0-2.59-.06-4.79-.18l-2.28-.11q-11,0-14.87.22c-.86,0-1.29-.23-1.29-.68a.5.5,0,0,1,.37-.5,26.28,26.28,0,0,1,2.77-.58,3.66,3.66,0,0,0,2.26-1.21,8.6,8.6,0,0,0,1.25-3.93,68,68,0,0,0,.43-8.83c0-3.86,0-7,.14-9.35s.14-4.19.14-5.45a81.69,81.69,0,0,0-.44-9.47c-.3-2.39-.72-3.91-1.27-4.56a5.45,5.45,0,0,0-3.36-1.38c-.69-.09-1-.34-1-.75s.35-.64,1-.64l6.5.11q3.18,0,6-.15c4.17-.21,6.87-.32,8.08-.32q6.61,0,10.51,2.89a9.35,9.35,0,0,1,3.86,7.9,9.76,9.76,0,0,1-2.54,6.75Q421.09,947.62,415.12,949.44Zm-12.27,1.66a7,7,0,0,0-.5,3.11l-.25,11.08q0,5.87.31,6.55t2.07,1.14a24.22,24.22,0,0,0,5.6.46,13.73,13.73,0,0,0,5.52-.94,9.43,9.43,0,0,0,3.91-3.74,12.14,12.14,0,0,0,1.79-6.68q0-5.79-3.41-8.51t-10.1-2.72C406.29,950.85,404.64,950.94,402.85,951.1Zm0-21.3q-.32,7.83-.32,12.69l0,5.29a2,2,0,0,0,.3,1.36,2.91,2.91,0,0,0,1.66.28q6.8,0,10.91-2.48t4.11-8.35q0-5-3.06-7.42a11.77,11.77,0,0,0-7.59-2.44A20.23,20.23,0,0,0,402.85,929.8Z" />
    <path class="cls-4"
        d="M458.38,927.58l6.52.15,10-.15c1.2,0,1.79.24,1.79.72s-.32.58-1,.68q-4,.49-5,2.86t-1,17.44q0,5.54.29,12.48a63,63,0,0,0,.64,8.29,4.33,4.33,0,0,0,1.36,2.21,7.4,7.4,0,0,0,3.72,1.22c.6.07.89.3.89.68s-.27.64-.82.64l-8.88-.07-7.56.11c-.83,0-1.25-.24-1.25-.72s.33-.75,1-.75c2.21,0,3.51-.78,3.89-2.21s.58-6,.58-13.69q0-11.16-.2-18.06T462.28,931a4.83,4.83,0,0,0-3.65-1.93c-.67-.12-1-.4-1-.82S457.88,927.58,458.38,927.58Z" />
    <path class="cls-4"
        d="M532.53,950.76q5,2.16,6.91,4.5a16.09,16.09,0,0,1,2.86,7.25c.8,4.29,1.92,7.17,3.34,8.65a7.94,7.94,0,0,0,5.59,2.36q1,.06,1,.69t-1.11.63q-10,0-12.13-.66t-3.16-7.31a56.56,56.56,0,0,0-2-9.46,9.07,9.07,0,0,0-3.36-4.57q-2.31-1.59-7.21-1.59a26,26,0,0,0-4.21.39c-.12,1.5-.18,3.06-.18,4.67q0,9.18.25,11.87a6.07,6.07,0,0,0,1.52,3.93c.84.82,2.25,1.25,4.23,1.3.86,0,1.29.23,1.29.62s-.53.7-1.57.7h-17.7c-1,0-1.54-.23-1.54-.7s.41-.62,1.22-.62a6.42,6.42,0,0,0,3.77-.82,5.39,5.39,0,0,0,1.66-2.56,21.47,21.47,0,0,0,.61-6.27l-.07-7.28,0-11.11a104.13,104.13,0,0,0-.38-11.25,6.57,6.57,0,0,0-1.34-3.7c-.64-.63-2.13-1.12-4.47-1.48-.5-.07-.75-.27-.75-.61s.5-.57,1.5-.57l21.16-.46q8.76,0,12.71,3.35a10.59,10.59,0,0,1,2.36,13.83,10.09,10.09,0,0,1-3.77,3.68A43.25,43.25,0,0,1,532.53,950.76ZM519,949.85a51.9,51.9,0,0,0,10.29-1,10.91,10.91,0,0,0,5.84-3.61,9.8,9.8,0,0,0,2.42-6.62,10.27,10.27,0,0,0-2.68-7q-2.68-3-8.58-3a32.86,32.86,0,0,0-7.12.86q-.42,9.82-.42,15.65C518.74,946.47,518.82,948,519,949.85Z" />
    <path class="cls-4"
        d="M598.28,950.28a96.42,96.42,0,0,0,6.1-8q4.1-5.79,4.82-7.2a5.29,5.29,0,0,0,.74-2.23,2.63,2.63,0,0,0-1.49-2.34,5.81,5.81,0,0,0-3-.88c-.81,0-1.21-.21-1.21-.64s.68-.68,2-.68h13.47q1.86,0,1.86.75c0,.4-.27.61-.82.61a9.07,9.07,0,0,0-4.06,1A16.74,16.74,0,0,0,612,935l-6.22,8.4q-4.89,6.57-5.29,7.72c-.38,1.12-.57,4.08-.57,8.9q0,9.57.81,11.36c.53,1.2,2.27,1.92,5.2,2.19.76.07,1.14.31,1.14.71s-.42.72-1.25.72l-9.63-.22c-2.32,0-4.22,0-5.7.14-1.19.1-2,.15-2.29.15-.91,0-1.36-.24-1.36-.72s.33-.58,1-.61q3.45-.13,4.6-2.57a17.52,17.52,0,0,0,1.15-7.18,44.43,44.43,0,0,0-.65-8.44c-.09-.55-1.12-2.5-3.07-5.85s-4.34-7-7.17-11.11-4.84-6.54-6.06-7.42a7,7,0,0,0-3.54-1.46c-.85-.08-1.28-.31-1.28-.72a.5.5,0,0,1,.34-.52,9.15,9.15,0,0,1,2-.12h15.62a9.78,9.78,0,0,1,1.93.1.55.55,0,0,1,.32.58c0,.38-.3.59-.9.64-3,.24-4.5,1.14-4.5,2.72a8.65,8.65,0,0,0,1.65,3.82Q589.92,938.77,598.28,950.28Z" />
    <path class="cls-4"
        d="M662.15,927h1.66q4,8.19,11,28,4.53,12.69,6.21,15.57a6.52,6.52,0,0,0,5.41,3.2c.79.07,1.19.33,1.19.78s-.21.5-.61.5l-.5,0q-3.28-.28-8.37-.29c-5.19,0-8.53.08-10,.25-.74,0-1.11-.21-1.11-.64s.27-.5.82-.57a10,10,0,0,0,4.2-1,2.62,2.62,0,0,0,1.16-2.36c0-1-.72-3.59-2.18-7.69l-2.1-6.14q-1.86,0-16.62.21-3.74,9.9-3.73,12.49a3.52,3.52,0,0,0,1.84,3.25,8.22,8.22,0,0,0,3.63,1.17c.88.07,1.32.34,1.32.8,0,.18-.14.36-.42.52q-5.73-.26-6.9-.25-6,0-8.08.14c-.76,0-1.15-.21-1.15-.64s.34-.62,1-.71c2.74-.36,4.83-2.22,6.29-5.58s3.72-9.4,6.79-18.12Q657.15,937.91,662.15,927Zm-1.42,7.79A181.32,181.32,0,0,0,653,954.53c2.45-.11,4.22-.17,5.29-.17l10,.17q-1.32-3.71-3.72-9.86Q661.66,937.34,660.73,934.8Z" />
    <path class="cls-4"
        d="M724,928.19q2.15,2.89,7.44,9l11.43,13.26,11,12.73q.36-6.46.36-16.8,0-7.76-.32-10.39a6.75,6.75,0,0,0-2.38-4.41,7.55,7.55,0,0,0-5.13-1.79c-1,0-1.43-.2-1.43-.61a.53.53,0,0,1,.31-.51,32,32,0,0,1,4.81-.32q4.5-.17,7.57-.17l4.83,0h.79c.73,0,1.1.21,1.1.63s-.32.59-1,.66a9,9,0,0,0-5.2,1.88,6.6,6.6,0,0,0-1.9,4.27q-.3,2.79-.3,18.78l-.35,18.89c0,1-.24,1.43-.71,1.43a1.14,1.14,0,0,1-.49-.16,38.14,38.14,0,0,1-3.2-3.61c-1.94-2.3-4.31-5.06-7.14-8.28s-5-5.82-6.66-7.82c-3.55-4.32-5.79-7-6.72-8a60.21,60.21,0,0,1-6.12-7.07c-.4-.72-.77-1.08-1.1-1.08s-.4.47-.4,1.4l.07,5.54q0,10.55.58,16.84t1.19,7.38a7.62,7.62,0,0,0,2.18,2.2,5.66,5.66,0,0,0,3.31,1.1c1.57,0,2.36.29,2.36.86s-.44.65-1.32.65l-17.2,0c-.81,0-1.21-.2-1.21-.61s.39-.71,1.18-.71q4.4,0,5.86-2t1.47-8.28l-.3-12.54q0-11.12-.6-13.1a16.57,16.57,0,0,0-2.73-4.83,7.33,7.33,0,0,0-4.85-3.2c-.81-.09-1.21-.31-1.21-.64s.52-.68,1.57-.68Z" />
    <path class="cls-4"
        d="M792.75,927.58l6.52.15,10-.15c1.19,0,1.79.24,1.79.72s-.32.58-1,.68q-4,.49-5,2.86t-1,17.44q0,5.54.29,12.48a61.15,61.15,0,0,0,.64,8.29,4.26,4.26,0,0,0,1.36,2.21,7.4,7.4,0,0,0,3.72,1.22c.59.07.89.3.89.68s-.27.64-.82.64l-8.89-.07-7.55.11q-1.26,0-1.26-.72c0-.5.34-.75,1-.75,2.21,0,3.51-.78,3.89-2.21s.57-6,.57-13.69q0-11.16-.19-18.06T796.65,931a4.85,4.85,0,0,0-3.65-1.93c-.67-.12-1-.4-1-.82S792.25,927.58,792.75,927.58Z" />
    <path class="cls-1"
        d="M415.12,949.44q6.64,1.75,9.95,4.9a10.2,10.2,0,0,1,3.31,7.66,12.33,12.33,0,0,1-4.11,8.9Q420.16,975,412.18,975c-1,0-2.59-.06-4.79-.18l-2.28-.11q-11,0-14.87.22c-.86,0-1.29-.23-1.29-.68a.5.5,0,0,1,.37-.5,26.28,26.28,0,0,1,2.77-.58,3.66,3.66,0,0,0,2.26-1.21,8.6,8.6,0,0,0,1.25-3.93,68,68,0,0,0,.43-8.83c0-3.86,0-7,.14-9.35s.14-4.19.14-5.45a81.69,81.69,0,0,0-.44-9.47c-.3-2.39-.72-3.91-1.27-4.56a5.45,5.45,0,0,0-3.36-1.38c-.69-.09-1-.34-1-.75s.35-.64,1-.64l6.5.11q3.18,0,6-.15c4.17-.21,6.87-.32,8.08-.32q6.61,0,10.51,2.89a9.35,9.35,0,0,1,3.86,7.9,9.76,9.76,0,0,1-2.54,6.75Q421.09,947.62,415.12,949.44Zm-12.27,1.66a7,7,0,0,0-.5,3.11l-.25,11.08q0,5.87.31,6.55t2.07,1.14a24.22,24.22,0,0,0,5.6.46,13.73,13.73,0,0,0,5.52-.94,9.43,9.43,0,0,0,3.91-3.74,12.14,12.14,0,0,0,1.79-6.68q0-5.79-3.41-8.51t-10.1-2.72C406.29,950.85,404.64,950.94,402.85,951.1Zm0-21.3q-.32,7.83-.32,12.69l0,5.29a2,2,0,0,0,.3,1.36,2.91,2.91,0,0,0,1.66.28q6.8,0,10.91-2.48t4.11-8.35q0-5-3.06-7.42a11.77,11.77,0,0,0-7.59-2.44A20.23,20.23,0,0,0,402.85,929.8Z" />
    <path class="cls-1"
        d="M458.38,927.58l6.52.15,10-.15c1.2,0,1.79.24,1.79.72s-.32.58-1,.68q-4,.49-5,2.86t-1,17.44q0,5.54.29,12.48a63,63,0,0,0,.64,8.29,4.33,4.33,0,0,0,1.36,2.21,7.4,7.4,0,0,0,3.72,1.22c.6.07.89.3.89.68s-.27.64-.82.64l-8.88-.07-7.56.11c-.83,0-1.25-.24-1.25-.72s.33-.75,1-.75c2.21,0,3.51-.78,3.89-2.21s.58-6,.58-13.69q0-11.16-.2-18.06T462.28,931a4.83,4.83,0,0,0-3.65-1.93c-.67-.12-1-.4-1-.82S457.88,927.58,458.38,927.58Z" />
    <path class="cls-1"
        d="M532.53,950.76q5,2.16,6.91,4.5a16.09,16.09,0,0,1,2.86,7.25c.8,4.29,1.92,7.17,3.34,8.65a7.94,7.94,0,0,0,5.59,2.36q1,.06,1,.69t-1.11.63q-10,0-12.13-.66t-3.16-7.31a56.56,56.56,0,0,0-2-9.46,9.07,9.07,0,0,0-3.36-4.57q-2.31-1.59-7.21-1.59a26,26,0,0,0-4.21.39c-.12,1.5-.18,3.06-.18,4.67q0,9.18.25,11.87a6.07,6.07,0,0,0,1.52,3.93c.84.82,2.25,1.25,4.23,1.3.86,0,1.29.23,1.29.62s-.53.7-1.57.7h-17.7c-1,0-1.54-.23-1.54-.7s.41-.62,1.22-.62a6.42,6.42,0,0,0,3.77-.82,5.39,5.39,0,0,0,1.66-2.56,21.47,21.47,0,0,0,.61-6.27l-.07-7.28,0-11.11a104.13,104.13,0,0,0-.38-11.25,6.57,6.57,0,0,0-1.34-3.7c-.64-.63-2.13-1.12-4.47-1.48-.5-.07-.75-.27-.75-.61s.5-.57,1.5-.57l21.16-.46q8.76,0,12.71,3.35a10.59,10.59,0,0,1,2.36,13.83,10.09,10.09,0,0,1-3.77,3.68A43.25,43.25,0,0,1,532.53,950.76ZM519,949.85a51.9,51.9,0,0,0,10.29-1,10.91,10.91,0,0,0,5.84-3.61,9.8,9.8,0,0,0,2.42-6.62,10.27,10.27,0,0,0-2.68-7q-2.68-3-8.58-3a32.86,32.86,0,0,0-7.12.86q-.42,9.82-.42,15.65C518.74,946.47,518.82,948,519,949.85Z" />
    <path class="cls-1"
        d="M598.28,950.28a96.42,96.42,0,0,0,6.1-8q4.1-5.79,4.82-7.2a5.29,5.29,0,0,0,.74-2.23,2.63,2.63,0,0,0-1.49-2.34,5.81,5.81,0,0,0-3-.88c-.81,0-1.21-.21-1.21-.64s.68-.68,2-.68h13.47q1.86,0,1.86.75c0,.4-.27.61-.82.61a9.07,9.07,0,0,0-4.06,1A16.74,16.74,0,0,0,612,935l-6.22,8.4q-4.89,6.57-5.29,7.72c-.38,1.12-.57,4.08-.57,8.9q0,9.57.81,11.36c.53,1.2,2.27,1.92,5.2,2.19.76.07,1.14.31,1.14.71s-.42.72-1.25.72l-9.63-.22c-2.32,0-4.22,0-5.7.14-1.19.1-2,.15-2.29.15-.91,0-1.36-.24-1.36-.72s.33-.58,1-.61q3.45-.13,4.6-2.57a17.52,17.52,0,0,0,1.15-7.18,44.43,44.43,0,0,0-.65-8.44c-.09-.55-1.12-2.5-3.07-5.85s-4.34-7-7.17-11.11-4.84-6.54-6.06-7.42a7,7,0,0,0-3.54-1.46c-.85-.08-1.28-.31-1.28-.72a.5.5,0,0,1,.34-.52,9.15,9.15,0,0,1,2-.12h15.62a9.78,9.78,0,0,1,1.93.1.55.55,0,0,1,.32.58c0,.38-.3.59-.9.64-3,.24-4.5,1.14-4.5,2.72a8.65,8.65,0,0,0,1.65,3.82Q589.92,938.77,598.28,950.28Z" />
    <path class="cls-1"
        d="M662.15,927h1.66q4,8.19,11,28,4.53,12.69,6.21,15.57a6.52,6.52,0,0,0,5.41,3.2c.79.07,1.19.33,1.19.78s-.21.5-.61.5l-.5,0q-3.28-.28-8.37-.29c-5.19,0-8.53.08-10,.25-.74,0-1.11-.21-1.11-.64s.27-.5.82-.57a10,10,0,0,0,4.2-1,2.62,2.62,0,0,0,1.16-2.36c0-1-.72-3.59-2.18-7.69l-2.1-6.14q-1.86,0-16.62.21-3.74,9.9-3.73,12.49a3.52,3.52,0,0,0,1.84,3.25,8.22,8.22,0,0,0,3.63,1.17c.88.07,1.32.34,1.32.8,0,.18-.14.36-.42.52q-5.73-.26-6.9-.25-6,0-8.08.14c-.76,0-1.15-.21-1.15-.64s.34-.62,1-.71c2.74-.36,4.83-2.22,6.29-5.58s3.72-9.4,6.79-18.12Q657.15,937.91,662.15,927Zm-1.42,7.79A181.32,181.32,0,0,0,653,954.53c2.45-.11,4.22-.17,5.29-.17l10,.17q-1.32-3.71-3.72-9.86Q661.66,937.34,660.73,934.8Z" />
    <path class="cls-1"
        d="M724,928.19q2.15,2.89,7.44,9l11.43,13.26,11,12.73q.36-6.46.36-16.8,0-7.76-.32-10.39a6.75,6.75,0,0,0-2.38-4.41,7.55,7.55,0,0,0-5.13-1.79c-1,0-1.43-.2-1.43-.61a.53.53,0,0,1,.31-.51,32,32,0,0,1,4.81-.32q4.5-.17,7.57-.17l4.83,0h.79c.73,0,1.1.21,1.1.63s-.32.59-1,.66a9,9,0,0,0-5.2,1.88,6.6,6.6,0,0,0-1.9,4.27q-.3,2.79-.3,18.78l-.35,18.89c0,1-.24,1.43-.71,1.43a1.14,1.14,0,0,1-.49-.16,38.14,38.14,0,0,1-3.2-3.61c-1.94-2.3-4.31-5.06-7.14-8.28s-5-5.82-6.66-7.82c-3.55-4.32-5.79-7-6.72-8a60.21,60.21,0,0,1-6.12-7.07c-.4-.72-.77-1.08-1.1-1.08s-.4.47-.4,1.4l.07,5.54q0,10.55.58,16.84t1.19,7.38a7.62,7.62,0,0,0,2.18,2.2,5.66,5.66,0,0,0,3.31,1.1c1.57,0,2.36.29,2.36.86s-.44.65-1.32.65l-17.2,0c-.81,0-1.21-.2-1.21-.61s.39-.71,1.18-.71q4.4,0,5.86-2t1.47-8.28l-.3-12.54q0-11.12-.6-13.1a16.57,16.57,0,0,0-2.73-4.83,7.33,7.33,0,0,0-4.85-3.2c-.81-.09-1.21-.31-1.21-.64s.52-.68,1.57-.68Z" />
    <path class="cls-1"
        d="M792.75,927.58l6.52.15,10-.15c1.19,0,1.79.24,1.79.72s-.32.58-1,.68q-4,.49-5,2.86t-1,17.44q0,5.54.29,12.48a61.15,61.15,0,0,0,.64,8.29,4.26,4.26,0,0,0,1.36,2.21,7.4,7.4,0,0,0,3.72,1.22c.59.07.89.3.89.68s-.27.64-.82.64l-8.89-.07-7.55.11q-1.26,0-1.26-.72c0-.5.34-.75,1-.75,2.21,0,3.51-.78,3.89-2.21s.57-6,.57-13.69q0-11.16-.19-18.06T796.65,931a4.85,4.85,0,0,0-3.65-1.93c-.67-.12-1-.4-1-.82S792.25,927.58,792.75,927.58Z" />
</svg>